<svg width="184" height="244" viewBox="0 0 184 244" fill="none" xmlns="http://www.w3.org/2000/svg">
<path d="M32 20H152L177 216H11.5L32 20Z" fill="white"/>
<path d="M145 15C149.001 15 154.252 16.569 155.5 17.3535C159.401 19.8052 163.797 22.2573 165.499 24.709C165.902 25.2893 166.302 25.8698 166.69 26.4502C168.672 29.4077 170.392 32.3657 171 35.3232C173.37 46.8452 175.703 58.3677 177 69.8896C179.553 92.5677 183.193 115.246 183.5 137.924C183.647 148.782 183.767 159.642 183.853 170.5C183.947 182.448 183.999 194.396 183.999 206.344C183.999 212.536 183.176 218.807 181 225C180.107 227.543 178.791 230.957 176.5 233.5C174.388 235.843 170.5 239 167.5 240.5C165.5 241.5 156 244 148.5 244C110.833 244 73.1666 244 35.5 244C26 244 20.3857 241.462 17.5 240.5C16 240 10.5 237 8 233.5C5.70846 230.957 4.3934 227.543 3.5 225C1.32443 218.808 9.07064e-05 212.536 0 206.344C3.96644e-06 194.396 0.0521269 182.448 0.146484 170.5C0.232238 159.641 0.352926 148.782 0.5 137.924C0.807189 115.246 4.44658 92.5677 7 69.8896C8.2973 58.3677 10.6297 46.8452 13 35.3232C13.6084 32.3657 15.3276 29.4077 17.3096 26.4502C17.6984 25.8699 18.0973 25.2892 18.5 24.709C20.2016 22.2573 24.5994 19.8052 28.5 17.3535C32.5 15 37 15 40 15H145ZM29.7529 186C21.7448 186 15.2529 192.492 15.2529 200.5C15.2529 208.508 21.7448 215 29.7529 215C37.7611 215 44.2529 208.508 44.2529 200.5C44.2529 192.492 37.7611 186 29.7529 186ZM154.753 186C146.745 186 140.253 192.492 140.253 200.5C140.253 208.508 146.745 215 154.753 215C162.761 215 169.253 208.508 169.253 200.5C169.253 192.492 162.761 186 154.753 186ZM96 132H150.753C153.5 132 157.5 131 158.753 129.566C159.684 128.5 159.631 128.639 160 128C160.991 126.291 161.753 124.23 161.753 122.521C161.753 109.812 159.333 97.1024 157.753 84.3936C156.465 74.0332 154.487 63.6729 152.753 53.3125C152.532 51.9918 152.319 50.6703 151.827 49.3496C151.803 49.2851 151.778 49.2207 151.753 49.1562C151.207 47.7709 150 45 147.253 45H96V132ZM38.2529 45C36.5 45 34.2984 47.7709 33.7529 49.1562C33.7275 49.2207 33.7027 49.2851 33.6787 49.3496C33.1867 50.6703 32.974 51.9918 32.7529 53.3125C31.0185 63.6729 29.0411 74.0332 27.7529 84.3936C26.1728 97.1024 23.753 109.812 23.7529 122.521C23.7529 124.23 24.0094 125.791 25 127.5C25.3699 128.139 26.4027 128.928 26.7529 129.566C29 131.5 31.5 132 34.7529 132H88V45H38.2529ZM92.2529 24C65.253 24 64.2529 24 64.2529 30C64.2529 36 64.2529 36 92.2529 36C120.253 36 119.253 36 119.253 30C119.253 24 119.253 24 92.2529 24Z" fill="#0088FF"/>
<path d="M65.5264 4.40527C67.3857 1.65085 70.4917 0 73.8149 0H109.958C113.405 0 116.61 1.7762 118.438 4.70001L128 20H55L65.5264 4.40527Z" fill="#0088FF"/>
</svg>
