<svg width="302" height="400" viewBox="0 0 302 400" fill="none" xmlns="http://www.w3.org/2000/svg">
<path d="M52.459 32.7869H249.18L290.164 354.098H18.8525L52.459 32.7869Z" fill="white"/>
<path d="M237.705 24.5902C244.264 24.5902 252.872 27.1623 254.918 28.4484C261.313 32.4675 268.52 36.4874 271.31 40.5065C271.97 41.4579 272.626 42.4095 273.262 43.361C276.511 48.2093 279.331 53.0585 280.328 57.9069C284.213 76.7954 288.038 95.6848 290.164 114.573C294.349 151.75 300.316 188.928 300.82 226.105C301.061 243.905 301.257 261.708 301.398 279.508C301.552 299.095 301.638 318.682 301.638 338.269C301.638 348.42 300.289 358.7 296.721 368.852C295.257 373.021 293.1 378.618 289.344 382.787C285.882 386.628 279.508 391.803 274.59 394.262C271.311 395.902 255.738 400 243.443 400C181.693 400 119.945 400 58.1967 400C42.6229 400 33.4191 395.839 28.6885 394.262C26.2295 393.443 17.2131 388.525 13.1148 382.787C9.35813 378.618 7.20229 373.021 5.7377 368.852C2.1712 358.702 0.000148699 348.42 0 338.269C6.50236e-06 318.682 0.0854539 299.095 0.240138 279.508C0.380718 261.707 0.578567 243.905 0.819672 226.105C1.32326 188.928 7.28948 151.75 11.4754 114.573C13.6021 95.6848 17.4257 76.7954 21.3115 57.9069C22.3089 53.0585 25.1272 48.2093 28.3764 43.361C29.0138 42.4097 29.6677 41.4577 30.3279 40.5065C33.1174 36.4873 40.3269 32.4676 46.7213 28.4484C53.2787 24.5902 60.6557 24.5902 65.5738 24.5902H237.705ZM48.7752 304.918C35.6472 304.918 25.0048 315.561 25.0048 328.689C25.0048 341.816 35.6472 352.459 48.7752 352.459C61.9034 352.459 72.5457 341.816 72.5457 328.689C72.5457 315.561 61.9034 304.918 48.7752 304.918ZM253.693 304.918C240.566 304.918 229.923 315.561 229.923 328.689C229.923 341.816 240.566 352.459 253.693 352.459C266.821 352.459 277.464 341.816 277.464 328.689C277.464 315.561 266.821 304.918 253.693 304.918ZM157.377 216.393H247.136C251.639 216.393 258.197 214.754 260.251 212.403C261.778 210.656 261.69 210.884 262.295 209.836C263.92 207.034 265.169 203.656 265.169 200.854C265.169 180.019 261.202 159.184 258.611 138.35C256.5 121.366 253.257 104.382 250.415 87.3975C250.052 85.2325 249.703 83.0661 248.897 80.901C248.857 80.7952 248.816 80.6897 248.775 80.5839C247.88 78.3129 245.902 73.7705 241.398 73.7705H157.377V216.393ZM62.7097 73.7705C59.8361 73.7705 56.2269 78.3129 55.3326 80.5839C55.291 80.6897 55.2503 80.7952 55.211 80.901C54.4044 83.0661 54.0557 85.2325 53.6933 87.3975C50.85 104.382 47.6084 121.366 45.4966 138.35C42.9062 159.184 38.9393 180.019 38.9392 200.854C38.9392 203.656 39.3597 206.215 40.9836 209.016C41.59 210.064 43.2831 211.357 43.8572 212.403C47.541 215.574 51.6393 216.393 56.972 216.393H144.262V73.7705H62.7097ZM151.234 39.3443C106.972 39.3443 105.333 39.3443 105.333 49.1803C105.333 59.0164 105.333 59.0164 151.234 59.0164C197.136 59.0164 195.497 59.0164 195.497 49.1803C195.497 39.3443 195.497 39.3443 151.234 39.3443Z" fill="#FF0004"/>
<path d="M107.42 7.22175C110.468 2.70632 115.56 0 121.008 0H180.258C185.911 0 191.164 2.9118 194.16 7.70494L209.836 32.7869H90.1639L107.42 7.22175Z" fill="#FF0004"/>
</svg>
