<svg width="194" height="283" viewBox="0 0 194 283" fill="none" xmlns="http://www.w3.org/2000/svg">
<path d="M16 20C16 8.95431 24.9543 0 36 0H160C171.046 0 180 8.95431 180 20V263C180 274.046 171.046 283 160 283H36C24.9543 283 16 274.046 16 263V20Z" fill="#0088FF"/>
<path d="M24 61C24 89 18.6274 89 12 89C5.37258 89 -2.13624e-05 89 0 61C2.13625e-05 33 5.37258 33 12 33C18.6274 33 24 33 24 61Z" fill="#0088FF"/>
<path d="M24 225C24 253 18.6274 253 12 253C5.37258 253 -2.13624e-05 253 0 225C2.13625e-05 197 5.37258 197 12 197C18.6274 197 24 197 24 225Z" fill="#0088FF"/>
<path d="M194 61C194 89 188.627 89 182 89C175.373 89 170 89 170 61C170 33 175.373 33 182 33C188.627 33 194 33 194 61Z" fill="#0088FF"/>
<path d="M194 225C194 253 188.627 253 182 253C175.373 253 170 253 170 225C170 197 175.373 197 182 197C188.627 197 194 197 194 225Z" fill="#0088FF"/>
<path d="M158 72C158 69.7909 156.209 68 154 68C151.791 68 150 69.7909 150 72V107C150 109.209 151.791 111 154 111C156.209 111 158 109.209 158 107V72Z" fill="white"/>
<path d="M158 123C158 120.791 156.209 119 154 119C151.791 119 150 120.791 150 123V158C150 160.209 151.791 162 154 162C156.209 162 158 160.209 158 158V123Z" fill="white"/>
<path d="M158 176C158 173.791 156.209 172 154 172C151.791 172 150 173.791 150 176V211C150 213.209 151.791 215 154 215C156.209 215 158 213.209 158 211V176Z" fill="white"/>
<path d="M46 72C46 69.7909 44.2091 68 42 68C39.7909 68 38 69.7909 38 72V107C38 109.209 39.7909 111 42 111C44.2091 111 46 109.209 46 107V72Z" fill="white"/>
<path d="M46 124C46 121.791 44.2091 120 42 120C39.7909 120 38 121.791 38 124V159C38 161.209 39.7909 163 42 163C44.2091 163 46 161.209 46 159V124Z" fill="white"/>
<path d="M46 176C46 173.791 44.2091 172 42 172C39.7909 172 38 173.791 38 176V211C38 213.209 39.7909 215 42 215C44.2091 215 46 213.209 46 211V176Z" fill="white"/>
<rect x="51.5" y="33.5" width="93" height="208" rx="19.5" fill="#0088FF" stroke="white"/>
</svg>
